<?xml version="1.0" standalone="no"?><!DOCTYPE svg PUBLIC "-//W3C//DTD SVG 1.1//EN" "http://www.w3.org/Graphics/SVG/1.1/DTD/svg11.dtd"><svg t="1758009366636" class="icon" viewBox="0 0 1024 1024" version="1.1" xmlns="http://www.w3.org/2000/svg" p-id="8200" xmlns:xlink="http://www.w3.org/1999/xlink" width="32" height="32"><path d="M920 880H104c-22.09 0-40 17.91-40 40s17.91 40 40 40h816c22.09 0 40-17.91 40-40s-17.91-40-40-40zM193.54 809.55c66.17 0 120-53.83 120-120v-225.9c0-66.17-53.83-120-120-120s-120 53.83-120 120v225.9c0 66.17 53.83 120 120 120z m-40-345.9c0-22.06 17.94-40 40-40s40 17.94 40 40v225.9c0 22.06-17.94 40-40 40s-40-17.94-40-40v-225.9zM512.67 809.55c66.17 0 120-53.83 120-120v-404.6c0-66.17-53.83-120-120-120s-120 53.83-120 120v404.6c0 66.17 53.83 120 120 120z m-40-524.6c0-22.06 17.94-40 40-40s40 17.94 40 40v404.6c0 22.06-17.94 40-40 40s-40-17.94-40-40v-404.6zM840 64c-66.17 0-120 53.83-120 120v505.55c0 66.17 53.83 120 120 120s120-53.83 120-120V184c0-66.17-53.83-120-120-120z m40 625.55c0 22.06-17.94 40-40 40s-40-17.94-40-40V184c0-22.06 17.94-40 40-40s40 17.94 40 40v505.55z" p-id="8201"></path></svg>