<?xml version="1.0" standalone="no"?><!DOCTYPE svg PUBLIC "-//W3C//DTD SVG 1.1//EN" "http://www.w3.org/Graphics/SVG/1.1/DTD/svg11.dtd"><svg t="1766406725447" class="icon" viewBox="0 0 1024 1024" version="1.1" xmlns="http://www.w3.org/2000/svg" p-id="5992" xmlns:xlink="http://www.w3.org/1999/xlink" width="32" height="32"><path d="M1024 307.2H0v51.2h1024V307.2zM865.73568 529.58208v69.28896h48.96256v36.51584h-48.96256v124.47744c0 5.8112 1.24416 9.9584 3.73248 12.86656 2.48832 2.48832 6.22592 4.1472 11.61728 4.1472h28.21632v36.51584h-35.26656c-18.25792 0-31.95392-4.98176-40.24832-14.52544-8.29952-9.12896-12.03712-21.9904-12.03712-39.00416v-124.47744h-39.8336v-36.51584h39.8336v-51.03616l43.98592-18.2528zM675.35872 593.05984c55.59808 0 86.30272 22.41024 91.28448 67.6352h-42.74176c-3.31776-11.61728-8.2944-19.50208-15.34976-24.064-7.47008-4.98176-19.08736-7.47008-34.0224-7.47008-13.28128 0-23.23968 1.65888-29.8752 5.8112-7.8848 4.1472-11.6224 10.78784-11.6224 19.08736 0 7.46496 5.8112 13.69088 17.42848 19.08224 7.47008 3.32288 21.57568 7.47008 43.15136 12.86656 24.48384 5.80608 42.74176 12.86144 54.35904 20.33152 17.01376 10.78784 25.72288 25.72288 25.72288 44.81024 0 45.23008-31.9488 68.04992-95.43168 68.04992-58.92096 0-90.45504-25.31328-95.4368-75.10016h43.15648c2.48832 14.52032 7.87968 24.89344 15.34976 30.70464 7.47008 5.39136 19.08736 8.2944 35.6864 8.2944 34.0224 0 51.45088-9.9584 51.45088-29.04064 0-10.37824-6.64064-18.67264-19.08736-24.48384-6.64064-3.31776-21.16096-7.47008-43.15136-12.44672-25.31328-5.8112-43.15648-12.032-53.11488-18.67264-16.59392-10.37312-24.89344-24.89856-24.89344-43.15136 0-19.50208 7.8848-34.85696 24.064-45.6448 16.18432-11.20256 37.34528-16.59904 63.07328-16.59904zM462.336 593.05984c34.85696 0 61.824 11.6224 80.08192 35.6864 16.59904 21.57568 25.30816 51.45088 25.728 89.6256H405.48864c1.664 20.74624 7.05536 36.93056 17.01376 48.13312 9.9584 10.78784 23.6544 16.59392 41.07776 16.59392 15.35488 0 27.8016-3.73248 37.34528-10.78784 7.47008-5.80608 13.69088-15.34976 19.50208-27.79648h43.9808c-4.97664 19.9168-14.52032 36.92544-29.46048 50.20672-18.67264 16.1792-42.32192 24.47872-70.95296 24.47872-31.53408 0-56.84224-9.9584-75.10016-29.46048-19.9168-20.74624-29.8752-48.54784-29.8752-83.8144 0-31.9488 9.12896-58.50624 28.2112-80.08192 18.25792-21.9904 43.5712-32.78336 75.10528-32.78336z m1.24416 36.10112c-16.59904 0-29.46048 4.56704-39.41888 14.52544-9.12896 9.53856-15.34976 23.23456-17.8432 41.49248h115.76832c-4.1472-37.34528-23.6544-56.01792-58.50624-56.01792zM107.52 517.12h242.7392v38.58944H251.4944v257.66912H206.6944v-257.66912H107.52V517.12zM177.664 113.3568a15.98976 15.98976 0 0 1-2.048 22.51776l-54.80448 45.6704 54.80448 45.6704a15.98976 15.98976 0 1 1-20.46976 24.56064l-57.7536-48.128c-13.80352-11.49952-13.80352-32.70656 0-44.2112l57.7536-48.128a15.98976 15.98976 0 0 1 22.51776 2.048zM339.456 113.3568a15.98976 15.98976 0 0 0 2.048 22.51776l54.80448 45.6704-54.80448 45.6704a15.98976 15.98976 0 0 0 20.46976 24.56064l57.7536-48.128c13.80352-11.49952 13.80352-32.70656 0-44.2112l-57.7536-48.128a15.98976 15.98976 0 0 0-22.51776 2.048zM289.3824 109.09184a15.98976 15.98976 0 0 1 7.82336 21.21216L238.25408 258.20672a15.98976 15.98976 0 0 1-29.04064-13.38368l58.9568-127.90272a15.98976 15.98976 0 0 1 21.21216-7.82848z" fill="#000000" p-id="5993"></path><path d="M0 73.14432C0 32.74752 32.74752 0 73.14432 0h877.71136C991.25248 0 1024 32.74752 1024 73.14432v877.71136c0 40.3968-32.74752 73.14432-73.14432 73.14432H73.14432C32.74752 1024 0 991.25248 0 950.85568V73.14432z m73.14432-24.38144a24.38144 24.38144 0 0 0-24.38144 24.38144v877.71136a24.38144 24.38144 0 0 0 24.38144 24.38144h877.71136a24.38144 24.38144 0 0 0 24.38144-24.38144V73.14432a24.38144 24.38144 0 0 0-24.38144-24.38144H73.14432z" fill="#000000" p-id="5994"></path></svg>