<?xml version="1.0" standalone="no"?><!DOCTYPE svg PUBLIC "-//W3C//DTD SVG 1.1//EN" "http://www.w3.org/Graphics/SVG/1.1/DTD/svg11.dtd"><svg t="1758009674522" class="icon" viewBox="0 0 1024 1024" version="1.1" xmlns="http://www.w3.org/2000/svg" p-id="25074" xmlns:xlink="http://www.w3.org/1999/xlink" width="32" height="32"><path d="M993.882353 512C993.882353 245.856376 778.131576 30.117647 512 30.117647S30.117647 245.856376 30.117647 512c0 183.235765 102.279529 342.582212 252.855718 424.068518 26.563765-103.002353 119.808-179.212047 231.110776-179.212047 110.543812 0 203.306165 75.197741 230.568659 177.152C893.229176 851.931859 993.882353 693.753976 993.882353 512z" fill="#FFFFFF" p-id="25075"></path><path d="M514.084141 756.856471c-111.302776 0-204.547012 76.209694-231.110776 179.212047A479.798212 479.798212 0 0 0 512 993.882353a479.545224 479.545224 0 0 0 232.6528-59.873882c-27.262494-101.954259-120.024847-177.152-230.568659-177.152z" fill="#1D2B2C" p-id="25076"></path><path d="M432.417129 910.7456c-13.5168-44.827106-6.7584-122.771576-6.7584-122.771576l1.457695-2.939483c0.325271-3.132235 0.602353-6.216282 1.011952-9.384659l-59.548611 49.742306 26.395106 19.010259-38.683106 17.2032s26.973365 65.319153 73.667764 125.433977c10.938729 1.879341 22.022024 3.312941 33.189647 4.445364-13.986635-29.021365-23.997741-58.392094-30.732047-80.739388z" fill="" p-id="25077"></path><path d="M607.978918 786.745224l-1.915483-4.096-3.180423-6.734306a234.676706 234.676706 0 0 0-88.545883-17.456189c-28.575624 0-55.9104 5.156141-81.245364 14.444424l-5.975341 12.119341-1.457695 2.939482s-6.770447 77.956518 6.7584 122.771577c6.734306 22.347294 16.745412 51.718024 30.744095 80.727341 0.385506 0.024094 0.758965 0.120471 1.14447 0.144565 15.709365 1.554071 31.575341 2.566024 47.694306 2.566023 20.154729 0 39.996235-1.289035 59.488376-3.698447 0.590306-0.072282 1.168565-0.192753 1.758871-0.252988 10.782118-22.287059 21.648565-49.621835 31.057318-83.1488 0 0 12.263906-45.441506 3.674353-120.326023z" fill="#E9E9E9" p-id="25078"></path><path d="M638.530259 845.426447l26.407153-19.034353-59.114918-49.392941-0.397553-0.144565c0.252988 1.951624 0.397553 3.830965 0.638494 5.782588l1.915483 4.096c8.589553 74.896565-3.6864 120.326024-3.6864 120.326024-9.408753 33.526965-20.287247 60.873788-31.057318 83.1488a468.522165 468.522165 0 0 0 34.442541-5.674165c44.537976-59.030588 69.523576-121.952376 69.523577-121.952376l-38.671059-17.155012z" fill="" p-id="25079"></path><path d="M583.246306 787.913788c0 13.552941-13.528847 24.563953-30.262212 24.563953h-71.511341c-16.685176 0-30.238118-11.011012-30.238118-24.563953V728.967529c0-13.552941 13.552941-24.539859 30.238118-24.539858h71.511341c16.733365 0 30.262212 10.986918 30.262212 24.539858v58.946259z" fill="#F4D8B0" p-id="25080"></path><path d="M451.234635 729.750588a65.969694 31.153694 0 1 0 131.939389 0 65.969694 31.153694 0 1 0-131.939389 0Z" fill="#C6A586" p-id="25081"></path><path d="M302.477553 592.570729s37.153129 146.263341 212.437835 147.648753c175.272659 1.421553 210.799435-147.648753 210.799436-147.648753s83.510212-327.342682-210.799436-327.342682c-294.321694 0-212.437835 327.342682-212.437835 327.342682z" fill="#F4D8B0" p-id="25082"></path><path d="M297.815341 501.639529s-34.924424-69.776565-66.415435-32.88847c-47.248565 55.380329 30.888659 105.809318 66.415435 101.1712V501.639529z" fill="#F4D8B0" p-id="25083"></path><path d="M294.695153 511.216941s-25.877082-45.308988-47.067859-22.371388c-25.142212 27.202259 22.226824 66.138353 47.067859 63.343435v-40.972047z" fill="#E5CDB3" p-id="25084"></path><path d="M728.702494 501.639529s34.960565-69.776565 66.451577-32.88847c47.248565 55.380329-30.888659 105.809318-66.451577 101.1712V501.639529z" fill="#F4D8B0" p-id="25085"></path><path d="M731.846776 511.216941s25.889129-45.308988 47.067859-22.371388c25.130165 27.202259-22.214776 66.138353-47.067859 63.343435v-40.972047z" fill="#E5CDB3" p-id="25086"></path><path d="M371.9168 351.340424s-74.089412 42.887529-70.981271 138.6496l-3.120188 58.705317s-7.9872-48.754447-12.625317-64.355388c-3.192471-10.721882-7.059576-8.830494-22.889412-22.588235-11.541082-10.023153-17.769412 8.938918-17.769412-21.275106 0-132.806776 12.6976-227.761694 137.408753-295.345694 138.950776-75.306165 363.592282-14.866071 398.613082 166.41807 21.817224 112.965271 1.445647 147.576471 1.445647 147.576471s-10.432753-5.312753-30.539294 10.890541c-20.106541 16.215341-19.624659 58.5728-19.624659 58.5728l-4.348988-47.104s7.023435-86.847247-60.476235-149.793129c-27.611859-25.756612-46.417318-21.479906-46.417318-21.479906s4.517647 29.744188-116.44687 48.091859c0 0-97.436612 11.769976-78.763671 67.1744 0 0 3.4816 15.649129 26.648094 27.816658 0.012047 0-95.677741-19.504188-80.112941-101.954258z" fill="#452B14" p-id="25087"></path><path d="M454.342776 342.4256c82.028424-28.840659 99.7376-35.285835 130.421459-43.983812 0 0-59.934118 16.420141-126.795294 38.189177-71.463153 20.853459-61.054494 78.570918-26.53967 103.845647 0 0-51.236141-69.860894 22.913505-98.051012z" fill="#57402C" p-id="25088"></path><path d="M607.232 127.156706s-339.618635 11.830212-358.363859 331.9808c0 0-58.199341-201.438871 118.3744-304.501459 120.000753-70.137976 239.989459-27.479341 239.989459-27.479341z" fill="#331D0C" p-id="25089"></path><path d="M686.718494 459.956706c-102.713224-6.939106-122.819765 6.192188-138.264094 12.360282-15.456376 6.180141-36.117082 7.734212-36.117082 7.734212s-20.696847-1.554071-36.12913-7.734212c-15.456376-6.180141-35.538824-19.311435-138.264094-12.360282l-43.260988 6.9632v27.045647s15.444329 10.023153 15.444329 19.299388-3.843012 95.015153 74.1376 95.015153c78.016753 0 105.074447-64.114447 108.158494-98.0992 0 0 0.421647-11.601318 19.901742-10.818259 19.468047-0.771012 19.877647 10.818259 19.877647 10.818259 3.108141 33.972706 30.141741 98.0992 108.170541 98.0992 78.004706 0 74.1376-85.738918 74.1376-95.015153s15.432282-19.299388 15.432282-19.299388v-27.045647l-43.224847-6.9632z" fill="" p-id="25090"></path><path d="M559.079906 482.641318s39.695059-30.117647 124.831623-8.095624c19.118682 5.9392 18.974118 33.466729 19.022306 36.502588 0.072282 3.035859 1.4336 58.355953-23.564047 76.161506-25.563859 18.263341-73.366588 13.155388-100.1472-6.3488-30.214024-21.997929-41.3696-82.847624-20.142682-98.21967z" fill="#F4D8B0" p-id="25091"></path><path d="M605.424941 776.854588c-0.8192-0.349365-1.710682-0.590306-2.541929-0.93967l3.180423 6.734306c-0.228894-1.951624-0.373459-3.843012-0.638494-5.794636z" fill="#1D2B2C" p-id="25092"></path><path d="M605.400847 776.673882l0.024094 0.192753 0.397553 0.144565-0.421647-0.337318z" fill="" p-id="25093"></path><path d="M450.981647 735.593412s20.564329 62.608565 65.523953 84.70287c0 0-61.861647 83.510212-65.523953 87.172518 0 0-25.792753-52.802259-27.009506-119.085176l27.009506-52.790212zM583.077647 734.557365s-20.564329 62.608565-65.523953 84.726964c0 0 61.837553 83.486118 65.523953 87.148424 0 0 25.768659-52.802259 26.997459-119.085177L583.077647 734.557365z" fill="#FBFCFE" p-id="25094"></path><path d="M512.783059 688.549647c-19.636706 0-34.334118-5.288659-43.670588-15.757553-12.420518-13.890259-10.577318-31.623529-10.505036-32.382494a3.011765 3.011765 0 0 1 5.987389 0.662588c-0.012047 0.156612-1.578165 15.902118 9.047341 27.756424 8.155859 9.083482 21.323294 13.685459 39.128847 13.685459 17.781459 0 30.744094-4.589929 38.514447-13.625224 10.227953-11.866353 8.011294-27.539576 7.9872-27.696188a2.987671 2.987671 0 0 1 2.529882-3.421365 2.939482 2.939482 0 0 1 3.421365 2.529882c0.120471 0.758965 2.638306 18.576565-9.372612 32.515012-8.963012 10.4448-23.455624 15.733459-43.068235 15.733459z" fill="#FF6666" p-id="25095"></path><path d="M465.594729 482.641318s-39.695059-30.117647-124.84367-8.095624c-19.106635 5.9392-18.950024 33.466729-19.022306 36.502588-0.060235 3.035859-1.421553 58.355953 23.588141 76.161506 25.551812 18.263341 73.366588 13.155388 100.1472-6.3488 30.201976-21.997929 41.357553-82.847624 20.130635-98.21967z" fill="#F4D8B0" p-id="25096"></path></svg>