<?xml version="1.0" standalone="no"?><!DOCTYPE svg PUBLIC "-//W3C//DTD SVG 1.1//EN" "http://www.w3.org/Graphics/SVG/1.1/DTD/svg11.dtd"><svg t="1758009160766" class="icon" viewBox="0 0 1074 1024" version="1.1" xmlns="http://www.w3.org/2000/svg" p-id="4172" xmlns:xlink="http://www.w3.org/1999/xlink" width="33.5625" height="32"><path d="M519.664172 894.042304H159.114871A109.297755 109.297755 0 0 1 49.983729 784.744549V415.698015h798.573381v15.161731a24.991865 24.991865 0 1 0 49.98373 0v-162.280507a159.281484 159.281484 0 0 0-159.114872-159.114872h-24.991865V24.991865a24.991865 24.991865 0 0 0-49.983729 0v84.472502H234.090465V24.991865a24.991865 24.991865 0 0 0-49.983729 0v84.472502h-24.991865A159.281484 159.281484 0 0 0 0 268.579239v516.498535a159.281484 159.281484 0 0 0 159.114871 159.114872h360.549301a24.991865 24.991865 0 0 0 0-49.98373zM159.114871 159.448096h24.991865v71.143508a24.991865 24.991865 0 0 0 49.983729 0V159.448096h430.359909v71.143508a24.991865 24.991865 0 0 0 49.983729 0V159.448096h24.991865a109.297755 109.297755 0 0 1 109.131142 109.131143v96.968434H49.983729v-96.968434a109.297755 109.297755 0 0 1 109.131142-109.131143z" fill="#2c2c2c" p-id="4173"></path><path d="M409.20013 560.317605H137.122031a24.991865 24.991865 0 0 0 0 49.983729h272.078099a24.991865 24.991865 0 0 0 0-49.983729zM409.20013 669.781972H137.122031a24.991865 24.991865 0 0 0 0 49.983729h272.078099a24.991865 24.991865 0 0 0 0-49.983729zM937.361536 733.094696h-110.797267v-118.294826a24.991865 24.991865 0 0 0-49.983729 0v144.119753a24.991865 24.991865 0 0 0 24.991865 24.991864h135.955743a24.991865 24.991865 0 1 0 0-49.983729z" fill="#2c2c2c" p-id="4174"></path><path d="M801.572405 477.677839a273.410999 273.410999 0 0 0-273.244387 273.244387v5.331598a24.492027 24.492027 0 0 0 0 2.665799 24.991865 24.991865 0 0 0 0 5.664822 272.911162 272.911162 0 1 0 273.244387-286.906606z m0 496.338432A223.094045 223.094045 0 1 1 1024.66645 750.922226a223.42727 223.42727 0 0 1-223.094045 223.094045z" fill="#2c2c2c" p-id="4175"></path></svg>